<svg width="31" height="41" viewBox="0 0 31 41" fill="none" xmlns="http://www.w3.org/2000/svg">
<path d="M30.1531 11.9399C30.1531 14.7524 28.3563 17.0962 25.8563 17.8774C25.8563 20.0649 25.3094 21.8618 24.2156 23.1899C21.95 25.9243 18.2781 26.3149 14.9188 26.6274C12.9656 26.7837 11.0125 26.9399 9.7625 27.5649C9.21563 27.8774 8.825 28.2681 8.59063 28.6587C10.9344 29.5181 12.6531 31.7837 12.6531 34.4399C12.6531 37.9556 9.84063 40.6899 6.40313 40.6899C2.8875 40.6899 0.153126 37.9556 0.153126 34.4399C0.153126 31.7056 1.95 29.2837 4.52813 28.5024V12.9556C1.95 12.1743 0.153126 9.75244 0.153126 6.93994C0.153126 3.50244 2.8875 0.689941 6.40313 0.689941C9.84063 0.689941 12.6531 3.50244 12.6531 6.93994C12.6531 9.75244 10.7781 12.1743 8.27813 12.9556V24.2056C10.075 23.2681 12.4188 23.0337 14.6063 22.8774C17.4188 22.6431 20.075 22.3306 21.2469 20.8462C21.7938 20.2212 22.0281 19.2056 22.1063 17.9556C19.5281 17.2524 17.6531 14.8306 17.6531 11.9399C17.6531 8.50244 20.3875 5.68994 23.9031 5.68994C27.3406 5.68994 30.1531 8.50244 30.1531 11.9399ZM6.40313 5.68994C5.7 5.68994 5.15313 6.31494 5.15313 6.93994C5.15313 7.64307 5.7 8.18994 6.40313 8.18994C7.02813 8.18994 7.65313 7.64307 7.65313 6.93994C7.65313 6.31494 7.02813 5.68994 6.40313 5.68994ZM6.40313 35.6899C7.02813 35.6899 7.65313 35.1431 7.65313 34.4399C7.65313 33.8149 7.02813 33.1899 6.40313 33.1899C5.7 33.1899 5.15313 33.8149 5.15313 34.4399C5.15313 35.1431 5.7 35.6899 6.40313 35.6899ZM23.9031 10.6899C23.2 10.6899 22.6531 11.3149 22.6531 11.9399C22.6531 12.6431 23.2 13.1899 23.9031 13.1899C24.5281 13.1899 25.1531 12.6431 25.1531 11.9399C25.1531 11.3149 24.5281 10.6899 23.9031 10.6899Z" fill="#0A5EB0"/>
</svg>
