<svg width="52" height="31" viewBox="0 0 52 31" fill="none" xmlns="http://www.w3.org/2000/svg">
<path d="M15.2391 11.3774C15.1609 13.0962 16.0984 13.8774 16.0984 14.4243C16.0984 14.5806 15.9422 14.8149 15.7859 14.8931L14.7703 15.5962C14.6141 15.6743 14.4578 15.7524 14.3016 15.7524C14.3016 15.7524 13.6766 15.9087 12.7391 13.7212C11.5672 15.1274 9.84844 16.0649 7.89531 16.0649C7.89531 16.0649 7.89531 16.0649 7.81719 16.0649C6.56719 16.0649 3.12969 15.2837 3.28594 11.6118C3.12969 8.64307 5.94219 6.76807 8.83281 6.92432C9.37969 6.92432 10.5516 7.00244 12.5047 7.47119V6.22119C12.7391 4.11182 11.3328 2.54932 8.98906 2.78369C8.83281 2.78369 7.50469 2.78369 5.39531 3.56494C4.84844 3.87744 4.77031 3.79932 4.61406 3.79932C3.98906 3.79932 4.22344 2.08057 4.37969 1.92432C4.77031 1.37744 7.11406 0.439941 9.53594 0.518066C9.69219 0.439941 9.84844 0.439941 10.0047 0.439941C11.4891 0.439941 12.8172 0.986816 13.8328 1.84619C14.6922 2.78369 15.2391 4.11182 15.2391 5.51807C15.2391 5.67432 15.2391 5.75244 15.2391 5.90869V11.3774ZM8.44219 13.8774C11.0203 13.7993 12.1141 12.3149 12.3484 11.4556C12.5047 10.6743 12.5047 10.2056 12.5047 9.34619C11.7234 9.18994 10.6297 8.95557 9.37969 8.95557C8.20781 8.87744 6.02031 9.42432 6.17656 11.4556C6.02031 12.7837 7.03594 13.9556 8.44219 13.8774ZM21.8016 15.6743C21.2547 15.7524 20.9422 15.2837 20.8641 14.8931L16.9578 2.00244C16.8797 1.76807 16.8016 1.53369 16.8016 1.29932C16.8016 1.06494 16.9578 0.908691 17.1141 0.908691C17.1141 0.908691 16.9578 0.908691 18.8328 0.908691C19.5359 0.830566 19.7703 1.37744 19.8484 1.68994L22.5828 12.7056L25.2391 1.68994C25.2391 1.45557 25.3953 0.830566 26.1766 0.908691H27.5828C27.7391 0.908691 28.4422 0.908691 28.5203 1.76807L31.1766 12.8618L33.9891 1.76807C34.0672 1.53369 34.2234 0.830566 35.0047 0.908691H36.5672C36.6453 0.908691 37.0359 0.830566 36.9578 1.61182C36.9578 1.76807 37.2703 0.752441 32.8172 14.8931C32.7391 15.2837 32.5047 15.7524 31.8797 15.6743H30.3953C29.5359 15.7524 29.4578 14.8931 29.3797 14.8149L26.8016 4.11182L24.2234 14.8149C24.2234 14.8931 24.1453 15.7524 23.2859 15.6743H21.8016ZM43.2078 16.1431C42.7391 16.1431 40.5516 16.0649 38.7547 15.1274C38.3641 14.9712 38.1297 14.6587 38.1297 14.1899V13.4087C38.1297 12.7056 38.5984 12.8618 38.8328 12.9399C39.6141 13.2524 40.0828 13.4868 41.0203 13.6431C43.9109 14.2681 45.1609 13.4868 45.4734 13.3306C46.4891 12.7056 46.5672 11.2993 45.8641 10.5962C45.0828 9.89307 44.6922 9.89307 41.7234 8.95557C41.4109 8.87744 38.3641 7.86182 38.2859 4.89307C38.2859 2.62744 40.2391 0.439941 43.7547 0.518066C44.7703 0.518066 47.3484 0.830566 48.1297 1.68994C48.2078 1.84619 48.2859 2.08057 48.2078 2.23682V3.01807C48.2078 3.40869 48.1297 3.56494 47.8953 3.56494C47.2703 3.48682 46.1766 2.70557 43.9891 2.70557C43.5203 2.70557 40.9422 2.78369 41.0203 4.65869C41.0203 6.14307 43.1297 6.68994 43.3641 6.76807C46.1766 7.62744 47.1141 7.78369 48.2859 9.11182C49.6141 10.8306 48.9109 12.8618 48.5984 13.4087C47.1141 16.3774 43.2859 16.1431 43.2078 16.1431ZM46.3328 24.2681C40.8641 28.3306 32.8953 30.5181 26.1766 30.5181C26.0984 30.5181 25.9422 30.5181 25.8641 30.5181C16.4891 30.5181 7.81719 26.9243 1.33281 21.0649C0.864063 20.5962 1.33281 19.9712 1.95781 20.2837C9.22344 24.5024 17.5828 26.8462 26.5672 26.8462L26.6453 26.9243C33.3641 26.8462 39.7703 25.4399 45.5516 23.0181C46.4891 22.6274 47.2703 23.6431 46.3328 24.2681ZM48.5984 21.6899C47.8953 20.8306 43.9891 21.2993 42.1922 21.4556C41.7234 21.5337 41.6453 21.0649 42.1141 20.7524C45.2391 18.5649 50.3953 19.1899 50.9422 19.8931C51.5672 20.6743 50.7859 25.8306 47.8953 28.2524C47.4266 28.6431 46.9578 28.4868 47.1922 27.9399C47.8172 26.2993 49.3016 22.6274 48.5984 21.6899Z" fill="#0A5EB0"/>
</svg>
