<svg width="52" height="36" viewBox="0 0 52 36" fill="none" xmlns="http://www.w3.org/2000/svg">
<path d="M28.4422 16.5757H23.2859V11.8882H28.4422V16.5757ZM28.4422 0.560059V5.32568H23.2859V0.560059H28.4422ZM34.6141 11.8882V16.5757H29.4578V11.8882H34.6141ZM22.3484 6.26318V10.9507H17.1922V6.26318H22.3484ZM28.4422 6.26318V10.9507H23.2859V6.26318H28.4422ZM50.0828 14.0757L51.1766 14.7788C51.0203 15.0913 50.6297 15.9507 50.4734 16.1069C48.5984 19.6226 45.0047 19.7007 43.3641 19.6226C39.0672 29.9351 30.0047 35.6382 17.6609 35.6382C12.0359 35.6382 7.66094 33.8413 4.77031 30.4038C1.80156 26.8882 0.629688 21.7319 1.33281 17.7476H35.3172C37.0359 17.8257 38.3641 17.2788 39.0672 16.9663C37.5047 14.5444 37.8953 11.0288 39.3797 8.84131L40.0828 7.74756L41.1766 8.45068C43.0516 9.93506 44.1453 11.5757 44.3797 13.4507C46.4109 13.0601 48.9891 13.2944 50.0828 14.0757ZM10.1609 11.8882V16.5757H5.00469V11.8882H10.1609ZM16.2547 11.8882V16.5757H11.0984V11.8882H16.2547ZM22.3484 11.8882V16.5757H17.1922V11.8882H22.3484ZM16.2547 6.26318V10.9507H11.0984V6.26318H16.2547Z" fill="#0A5EB0"/>
</svg>
