<svg width="41" height="41" viewBox="0 0 41 41" fill="none" xmlns="http://www.w3.org/2000/svg">
<path d="M38.8328 17.7163C39.5359 17.6382 40.1609 18.1851 40.1609 18.9663V21.2319C40.1609 22.0132 39.5359 22.5601 38.8328 22.4819L37.4266 22.4038C37.0359 25.5288 35.7859 28.3413 33.9891 30.6851L35.0047 31.6226C35.5516 32.0913 35.6297 32.8726 35.0828 33.4194L33.4422 35.0601C32.8953 35.6069 32.1141 35.5288 31.6453 34.9819L30.7078 33.9663C28.3641 35.7632 25.5516 37.0132 22.4266 37.4038L22.5047 38.7319C22.5828 39.5132 22.0359 40.0601 21.2547 40.0601H18.9891C18.2078 40.0601 17.6609 39.5132 17.7391 38.7319L17.8172 37.4038C14.6922 37.0132 11.8797 35.7632 9.53594 33.9663L8.59844 34.9819C8.12969 35.5288 7.34844 35.6069 6.80156 35.0601L5.16094 33.4194C4.61406 32.8726 4.69219 32.0913 5.23906 31.6226L6.25469 30.6851C4.45781 28.3413 3.20781 25.5288 2.81719 22.4038L1.48906 22.4819C0.707813 22.5601 0.160938 22.0132 0.160938 21.2319V18.9663C0.160938 18.1851 0.707813 17.6382 1.48906 17.7163L2.81719 17.7944C3.20781 14.6694 4.45781 11.8569 6.25469 9.51318L5.23906 8.57568C4.69219 8.10693 4.61406 7.32568 5.16094 6.77881L6.80156 5.13818C7.34844 4.59131 8.12969 4.66943 8.59844 5.21631L9.53594 6.23193C11.8797 4.43506 14.6922 3.18506 17.8172 2.79443L17.7391 1.38818C17.6609 0.685059 18.2078 0.0600586 18.9891 0.0600586H21.2547C22.0359 0.0600586 22.5828 0.685059 22.5047 1.38818L22.4266 2.79443C25.5516 3.18506 28.3641 4.43506 30.7078 6.23193L31.6453 5.21631C32.1141 4.66943 32.8953 4.59131 33.4422 5.13818L35.0828 6.77881C35.6297 7.32568 35.5516 8.10693 35.0047 8.57568L33.9891 9.51318C35.7859 11.8569 37.0359 14.6694 37.4266 17.7944L38.8328 17.7163ZM22.1141 7.79443L21.8016 12.7944C22.6609 13.0288 23.3641 13.3413 24.0672 13.7319L27.4266 9.98193C25.8641 8.88818 24.0672 8.10693 22.1141 7.79443ZM18.1297 7.79443C16.1766 8.10693 14.3797 8.88818 12.8172 9.98193L16.1766 13.7319C16.8797 13.3413 17.5828 13.0288 18.4422 12.7944L18.1297 7.79443ZM10.0047 12.7944C8.91094 14.3569 8.12969 16.1538 7.81719 18.1069L12.8172 18.4194C13.0516 17.5601 13.3641 16.8569 13.7547 16.1538L10.0047 12.7944ZM7.81719 22.0913C8.12969 24.0444 8.91094 25.8413 10.0047 27.4038L13.7547 24.0444C13.3641 23.3413 13.0516 22.6382 12.8172 21.7788L7.81719 22.0913ZM18.1297 32.4038L18.4422 27.4038C17.5828 27.1694 16.8797 26.8569 16.1766 26.4663L12.8172 30.2163C14.3797 31.3101 16.1766 32.0913 18.1297 32.4038ZM20.1609 22.5601C21.4891 22.5601 22.6609 21.4663 22.6609 20.0601C22.6609 18.7319 21.4891 17.5601 20.1609 17.5601C18.7547 17.5601 17.6609 18.7319 17.6609 20.0601C17.6609 21.4663 18.7547 22.5601 20.1609 22.5601ZM22.1141 32.4038C24.0672 32.0913 25.8641 31.3101 27.4266 30.2163L24.0672 26.4663C23.3641 26.8569 22.6609 27.1694 21.8016 27.4038L22.1141 32.4038ZM30.2391 27.4038C31.3328 25.8413 32.1141 24.0444 32.4266 22.0913L27.4266 21.7788C27.1922 22.6382 26.8797 23.3413 26.4891 24.0444L30.2391 27.4038ZM27.4266 18.4194L32.4266 18.1069C32.1141 16.1538 31.3328 14.3569 30.2391 12.7944L26.4891 16.1538C26.8797 16.8569 27.1922 17.5601 27.4266 18.4194Z" fill="#0A5EB0"/>
</svg>
