<svg width="51" height="41" viewBox="0 0 51 41" fill="none" xmlns="http://www.w3.org/2000/svg">
<path d="M30.1688 25.6899C31.4969 25.6899 32.6688 26.8618 32.6688 28.1899V38.1899C32.6688 39.5962 31.4969 40.6899 30.1688 40.6899H20.1688C18.7625 40.6899 17.6688 39.5962 17.6688 38.1899V28.1899C17.6688 26.8618 18.7625 25.6899 20.1688 25.6899H30.1688ZM15.1688 3.18994V5.68994H32.6688V10.6899H15.1688V14.4399L20.1688 23.1899C18.2938 23.1899 16.6531 24.2056 15.7938 25.7681L10.0906 15.6899H2.66875C1.2625 15.6899 0.168751 14.5962 0.168751 13.1899V3.18994C0.168751 1.86182 1.2625 0.689941 2.66875 0.689941H12.6688C13.9969 0.689941 15.1688 1.86182 15.1688 3.18994ZM47.6688 0.689941C48.9969 0.689941 50.1688 1.86182 50.1688 3.18994V13.1899C50.1688 14.5962 48.9969 15.6899 47.6688 15.6899H37.6688C36.2625 15.6899 35.1688 14.5962 35.1688 13.1899V3.18994C35.1688 1.86182 36.2625 0.689941 37.6688 0.689941H47.6688Z" fill="#0A5EB0"/>
</svg>
