<svg width="46" height="41" viewBox="0 0 46 41" fill="none" xmlns="http://www.w3.org/2000/svg">
<path d="M16.9109 0.0600586C19.6453 0.0600586 21.9109 2.32568 21.9109 5.06006V34.4351C21.9109 37.5601 19.3328 40.0601 16.2859 40.0601C13.7859 40.0601 11.6766 38.4976 10.9734 36.2319C10.6609 36.3101 10.3484 36.3101 10.0359 36.3101C6.91094 36.3101 4.41094 33.8101 4.41094 30.6851C4.41094 30.3726 4.41094 29.9819 4.48906 29.5913C2.22344 28.6538 0.660938 26.4663 0.660938 23.8101C0.660938 21.5444 1.91094 19.5132 3.78594 18.4194C3.39531 17.6382 3.16094 16.7007 3.16094 15.6851C3.16094 13.1069 4.72344 10.8413 6.98906 9.90381C6.91094 9.59131 6.91094 9.20068 6.91094 8.81006C6.91094 6.07568 9.09844 3.81006 11.9109 3.81006C11.9109 3.81006 11.9891 3.88818 12.0672 3.88818C12.6141 1.70068 14.5672 0.0600586 16.9109 0.0600586ZM45.6609 23.8101C45.6609 26.4663 44.0203 28.6538 41.7547 29.5913C41.8328 29.9819 41.9109 30.3726 41.9109 30.6851C41.9109 33.8101 39.3328 36.3101 36.2859 36.3101C35.8953 36.3101 35.5828 36.3101 35.3484 36.2319C34.5672 38.4976 32.4578 40.0601 30.0359 40.0601C26.9109 40.0601 24.4109 37.5601 24.4109 34.4351V5.06006C24.4109 2.32568 26.5984 0.0600586 29.4109 0.0600586C31.6766 0.0600586 33.6297 1.70068 34.1766 3.88818C34.2547 3.88818 34.3328 3.81006 34.4109 3.81006C37.1453 3.81006 39.4109 6.07568 39.4109 8.81006C39.4109 9.20068 39.3328 9.59131 39.2547 9.90381C41.5203 10.8413 43.1609 13.1069 43.1609 15.6851C43.1609 16.7007 42.8484 17.6382 42.4578 18.4194C44.3328 19.5132 45.6609 21.5444 45.6609 23.8101Z" fill="#0A5EB0"/>
</svg>
