<svg width="51" height="41" viewBox="0 0 51 41" fill="none" xmlns="http://www.w3.org/2000/svg">
<path d="M50.1766 21.3149C50.1766 22.0181 49.5516 22.5649 48.9266 22.5649H40.8016V25.6899H45.1766C46.5047 25.6899 47.6766 26.8618 47.6766 28.1899V38.1899C47.6766 39.5962 46.5047 40.6899 45.1766 40.6899H32.6766C31.2703 40.6899 30.1766 39.5962 30.1766 38.1899V28.1899C30.1766 26.8618 31.2703 25.6899 32.6766 25.6899H37.0516V22.5649H13.3016V25.6899H17.6766C19.0047 25.6899 20.1766 26.8618 20.1766 28.1899V38.1899C20.1766 39.5962 19.0047 40.6899 17.6766 40.6899H5.17656C3.77031 40.6899 2.67656 39.5962 2.67656 38.1899V28.1899C2.67656 26.8618 3.77031 25.6899 5.17656 25.6899H9.55156V22.5649H1.42656C0.723438 22.5649 0.176563 22.0181 0.176563 21.3149V20.0649C0.176563 19.4399 0.723438 18.8149 1.42656 18.8149H23.3016V15.6899H17.6766C16.2703 15.6899 15.1766 14.5962 15.1766 13.1899V3.18994C15.1766 1.86182 16.2703 0.689941 17.6766 0.689941H32.6766C34.0047 0.689941 35.1766 1.86182 35.1766 3.18994V13.1899C35.1766 14.5962 34.0047 15.6899 32.6766 15.6899H27.0516V18.8149H48.9266C49.5516 18.8149 50.1766 19.4399 50.1766 20.0649V21.3149ZM20.1766 10.6899H30.1766V5.68994H20.1766V10.6899ZM15.1766 35.6899V30.6899H7.67656V35.6899H15.1766ZM42.6766 35.6899V30.6899H35.1766V35.6899H42.6766Z" fill="#0A5EB0"/>
</svg>
