<svg width="41" height="37" viewBox="0 0 41 37" fill="none" xmlns="http://www.w3.org/2000/svg">
<path d="M32.8172 12.3462C37.0359 13.7524 40.1609 16.0962 40.1609 18.4399C40.1609 20.9399 36.8797 23.3618 32.3484 24.8462C32.1141 24.9243 31.8797 25.0024 31.6453 25.0806C31.7234 25.3931 31.8016 25.7837 31.8797 26.0962C32.7391 30.6274 32.0359 34.2993 29.9266 35.5493C27.8953 36.7212 24.6141 35.5493 21.2547 32.6587C20.8641 32.3462 20.5516 32.0337 20.1609 31.7212C19.9266 31.9556 19.6141 32.1899 19.3797 32.4243C15.9422 35.4712 12.3484 36.7212 10.2391 35.4712C8.20781 34.2993 7.58281 30.8618 8.36406 26.5649C8.52031 26.0962 8.59844 25.6274 8.67656 25.1587C8.36406 25.0806 7.97344 24.9243 7.66094 24.8462C3.28594 23.3618 0.160938 20.8618 0.160938 18.4399C0.160938 16.0962 3.12969 13.8306 7.27031 12.3462C7.73906 12.1899 8.20781 12.0337 8.75469 11.8774C8.59844 11.4868 8.52031 11.0181 8.44219 10.6274C7.58281 6.17432 8.20781 2.65869 10.2391 1.48682C12.3484 0.236816 15.9422 1.56494 19.5359 4.68994C19.6922 4.92432 19.9266 5.08057 20.1609 5.31494C20.4734 5.00244 20.7859 4.68994 21.0984 4.45557C24.5359 1.48682 27.8953 0.236816 29.9266 1.40869C32.0359 2.65869 32.6609 6.40869 31.7234 11.0181C31.6453 11.3306 31.5672 11.6431 31.5672 11.9556C31.9578 12.0337 32.3484 12.1899 32.8172 12.3462ZM22.1922 5.70557C21.8797 5.93994 21.6453 6.25244 21.3328 6.48682C22.5047 7.81494 23.5984 9.22119 24.6141 10.7056C26.4109 10.8618 28.1297 11.0962 29.9266 11.4868C30.0047 11.2524 30.0047 11.0181 30.0828 10.7056C30.9422 6.72119 30.3953 3.59619 29.0672 2.89307C27.8172 2.18994 25.1609 3.12744 22.1922 5.70557ZM13.2078 22.5024C12.8172 21.7993 12.4266 21.1743 12.0359 20.4712C11.5672 21.6431 11.1766 22.8149 10.7859 23.9087C11.9578 24.2212 13.2078 24.3774 14.4578 24.5337C13.9891 23.8306 13.5984 23.2056 13.2078 22.5024ZM10.7859 13.1274C11.1766 14.2212 11.5672 15.3149 12.0359 16.4868C12.4266 15.7837 12.8172 15.1587 13.2078 14.4556C13.5984 13.8306 13.9891 13.1274 14.3797 12.5024C13.1297 12.6587 11.9578 12.8149 10.7859 13.1274ZM12.9734 18.5181C13.5203 19.5337 14.0672 20.6274 14.6141 21.6431C15.2391 22.6587 15.8641 23.6743 16.5672 24.6899C17.7391 24.7681 18.9109 24.8462 20.1609 24.8462C21.3328 24.8462 22.5828 24.7681 23.7547 24.6899C24.3797 23.6743 25.0047 22.6587 25.6297 21.6431C26.2547 20.6274 26.8016 19.5337 27.2703 18.4399C26.8016 17.3462 26.1766 16.3306 25.6297 15.3149C25.0047 14.2993 24.3797 13.2837 23.6766 12.2681C22.5828 12.1899 21.3328 12.1118 20.1609 12.1118C18.9109 12.1118 17.7391 12.1899 16.5672 12.2681C15.8641 13.2837 15.2391 14.2993 14.6141 15.3149C14.0672 16.3306 13.4422 17.4243 12.9734 18.5181ZM27.0359 22.5024C26.6453 23.1274 26.2547 23.8306 25.8641 24.4556C27.1141 24.3774 28.2859 24.1431 29.5359 23.8306C29.1453 22.6587 28.6766 21.5649 28.2078 20.3931C27.8172 21.0962 27.5047 21.7993 27.0359 22.5024ZM28.2078 16.4868C28.6766 15.3931 29.0672 14.2993 29.4578 13.1274C28.3641 12.8931 27.1141 12.6587 25.8641 12.5024C26.2547 13.1274 26.6453 13.8306 27.0359 14.4556C27.4266 15.1587 27.8172 15.7837 28.2078 16.4868ZM20.1609 7.73682C19.3797 8.59619 18.5984 9.53369 17.8172 10.5493C19.3797 10.4712 20.9422 10.4712 22.4266 10.5493C21.7234 9.53369 20.9422 8.59619 20.1609 7.73682ZM11.0984 2.89307C9.84844 3.67432 9.37969 6.48682 10.0828 10.2368C10.1609 10.7056 10.2391 11.0962 10.3953 11.4868C12.1141 11.0962 13.8328 10.8618 15.6297 10.7056C16.6453 9.22119 17.7391 7.81494 18.9891 6.48682C18.7547 6.33057 18.5984 6.17432 18.3641 5.93994C15.3172 3.28369 12.4266 2.18994 11.0984 2.89307ZM9.14531 23.5181C9.69219 21.7993 10.3172 20.0806 11.0984 18.5181C10.3953 16.8774 9.69219 15.2368 9.22344 13.5181C8.75469 13.6743 8.28594 13.7524 7.81719 13.9087C4.30156 15.1587 1.80156 17.0337 1.80156 18.4399C1.95781 19.3774 2.50469 20.2368 3.28594 20.7837C4.61406 21.8774 6.56719 22.6587 8.20781 23.2056C8.52031 23.3618 8.83281 23.4399 9.14531 23.5181ZM18.2859 31.1743C18.5203 30.9399 18.7547 30.7056 18.9891 30.4712C17.8172 29.1431 16.6453 27.7368 15.6297 26.3306C13.8328 26.1743 12.1141 25.9399 10.3172 25.5493C10.2391 25.9399 10.1609 26.4087 10.0828 26.8774C9.37969 30.5493 9.84844 33.2837 11.0984 34.0649C12.0359 34.3774 12.9734 34.3774 13.8328 33.9087C15.4734 33.2837 16.9578 32.3462 18.2859 31.1743ZM20.1609 29.2993C21.0203 28.3618 21.8016 27.4243 22.5047 26.4087C21.7234 26.4868 20.9422 26.4868 20.1609 26.4868C19.3797 26.4868 18.5984 26.4868 17.8172 26.4087C18.5984 27.5024 19.3797 28.4399 20.1609 29.2993ZM30.3953 31.6431C30.6297 29.9243 30.5516 28.1274 30.2391 26.4087C30.1609 26.0962 30.0828 25.7837 30.0047 25.4712C28.2078 25.8618 26.4891 26.1743 24.6922 26.3306C23.6766 27.8149 22.5828 29.1431 21.3328 30.4712C21.7234 30.7837 22.0359 31.0962 22.3484 31.4087C25.2391 33.8306 27.8953 34.7681 29.1453 34.0649C29.8484 33.4399 30.3172 32.5806 30.3953 31.6431ZM31.8016 23.2056C35.7078 21.9556 38.4422 19.9243 38.4422 18.4399C38.4422 17.0337 35.8641 15.1587 32.2703 13.9087C31.8797 13.7524 31.4891 13.6743 31.0984 13.5181C30.5516 15.2368 29.9266 16.8774 29.1453 18.4399C29.9266 20.0806 30.6297 21.7212 31.1766 23.4399C31.4109 23.3618 31.5672 23.2837 31.8016 23.2056ZM20.1609 22.0337C18.1297 22.0337 16.5672 20.4712 16.5672 18.4399C16.5672 16.4868 18.1297 14.9243 20.1609 14.9243C22.1141 14.9243 23.6766 16.4868 23.6766 18.4399C23.6766 20.4712 22.1141 22.0337 20.1609 22.0337Z" fill="#0A5EB0"/>
</svg>
